HIERARCHY
ROOT Hips
{
	OFFSET 0.000000 0.000000 0.000000
	CHANNELS 6 Xposition Yposition Zposition Xrotation Yrotation Zrotation
	JOINT LeftUpLeg_virtual
	{
		OFFSET 0.000000 0.000000 0.000000
		CHANNELS 3 Xrotation Yrotation Zrotation
		JOINT LeftUpLeg
		{
			OFFSET 13.026900 -6.336304 -1.092800
			CHANNELS 3 Xrotation Yrotation Zrotation
			JOINT LeftLeg
			{
				OFFSET 0.524474 -46.096886 9.782700
				CHANNELS 3 Xrotation Yrotation Zrotation
				JOINT LeftFoot
				{
					OFFSET -0.524474 -53.427422 -12.948200
					CHANNELS 3 Xrotation Yrotation Zrotation
					JOINT LeftToeBase
					{
						OFFSET 0.192200 -14.009700 16.364100
						CHANNELS 3 Xrotation Yrotation Zrotation
						JOINT LeftToe_End
						{
							OFFSET -1.784700 -0.561700 9.474800
							CHANNELS 3 Xrotation Yrotation Zrotation
							End Site
							{
								OFFSET 0 0 0
							}
						}
					}
				}
			}
		}
	}
	JOINT RightUpLeg_virtual
	{
		OFFSET 0.000000 0.000000 0.000000
		CHANNELS 3 Xrotation Yrotation Zrotation
		JOINT RightUpLeg
		{
			OFFSET -12.883000 -6.336304 -1.092800
			CHANNELS 3 Xrotation Yrotation Zrotation
			JOINT RightLeg
			{
				OFFSET -0.524587 -46.096825 9.782800
				CHANNELS 3 Xrotation Yrotation Zrotation
				JOINT RightFoot
				{
					OFFSET 0.524587 -53.427383 -12.948300
					CHANNELS 3 Xrotation Yrotation Zrotation
					JOINT RightToeBase
					{
						OFFSET -0.192200 -14.009700 16.364100
						CHANNELS 3 Xrotation Yrotation Zrotation
						JOINT RightToe_End
						{
							OFFSET 1.784700 -0.561700 9.474800
							CHANNELS 3 Xrotation Yrotation Zrotation
							End Site
							{
								OFFSET 0 0 0
							}
						}
					}
				}
			}
		}
	}
	JOINT Spine_virtual
	{
		OFFSET 0.000000 0.000000 0.000000
		CHANNELS 3 Xrotation Yrotation Zrotation
		JOINT Spine
		{
			OFFSET 0.072000 7.257294 -0.789700
			CHANNELS 3 Xrotation Yrotation Zrotation
			JOINT Spine1
			{
				OFFSET 0.000000 12.508769 -0.658067
				CHANNELS 3 Xrotation Yrotation Zrotation
				JOINT Spine1_split
				{
					OFFSET 0.000000 12.508769 -0.658067
					CHANNELS 3 Xrotation Yrotation Zrotation
					JOINT Spine2
					{
						OFFSET 0.000000 12.508769 -0.658067
						CHANNELS 3 Xrotation Yrotation Zrotation
						JOINT Neck_virtual
						{
							OFFSET 0.000000 0.000000 0.000000
							CHANNELS 3 Xrotation Yrotation Zrotation
							JOINT Neck
							{
								OFFSET 0.000000 14.033295 7.520400
								CHANNELS 3 Xrotation Yrotation Zrotation
								JOINT Head
								{
									OFFSET 0.000000 8.198502 5.703100
									CHANNELS 3 Xrotation Yrotation Zrotation
									JOINT HeadTop_End
									{
										OFFSET 0.000000 17.760803 13.332701
										CHANNELS 3 Xrotation Yrotation Zrotation
										End Site
										{
											OFFSET 0 0 0
										}
									}
								}
							}
						}
						JOINT LeftShoulder_virtual
						{
							OFFSET 0.000000 0.000000 0.000000
							CHANNELS 3 Xrotation Yrotation Zrotation
							JOINT LeftShoulder
							{
								OFFSET 6.292450 5.785301 -0.669000
								CHANNELS 3 Xrotation Yrotation Zrotation
								JOINT LeftShoulder_split
								{
									OFFSET 6.292450 5.785301 -0.669000
									CHANNELS 3 Xrotation Yrotation Zrotation
									JOINT LeftArm
									{
										OFFSET 13.907140 -6.093903 1.965100
										CHANNELS 3 Xrotation Yrotation Zrotation
										JOINT LeftForeArm
										{
											OFFSET 34.140198 0.000000 0.000000
											CHANNELS 3 Xrotation Yrotation Zrotation
											JOINT LeftHand
											{
												OFFSET 40.960209 0.000000 0.000000
												CHANNELS 3 Xrotation Yrotation Zrotation
												End Site
												{
													OFFSET 0 0 0
												}
											}
										}
									}
								}
							}
						}
						JOINT RightShoulder_virtual
						{
							OFFSET 0.000000 0.000000 0.000000
							CHANNELS 3 Xrotation Yrotation Zrotation
							JOINT RightShoulder
							{
								OFFSET -6.292450 5.785301 -0.669000
								CHANNELS 3 Xrotation Yrotation Zrotation
								JOINT RightShoulder_split
								{
									OFFSET -6.292450 5.785301 -0.669000
									CHANNELS 3 Xrotation Yrotation Zrotation
									JOINT RightArm
									{
										OFFSET -13.907140 -6.093903 1.965100
										CHANNELS 3 Xrotation Yrotation Zrotation
										JOINT RightForeArm
										{
											OFFSET -34.140198 0.000000 0.000000
											CHANNELS 3 Xrotation Yrotation Zrotation
											JOINT RightHand
											{
												OFFSET -40.960209 0.000000 0.000000
												CHANNELS 3 Xrotation Yrotation Zrotation
												End Site
												{
													OFFSET 0 0 0
												}
											}
										}
									}
								}
							}
						}
					}
				}
			}
		}
	}
}
MOTION
Frames: 4
Frame Time: 0.03333333
-2.857037 98.295250 -5.294609 0.000000 0.000000 0.000000 13.001675 -60.368204 12.122175 -44.050185 21.161150 32.640125 40.810418 -14.881432 -5.033750 -4.052130 -0.548906 -15.621927 -4.064396 -2.527974 -3.244655 0.000000 0.000000 0.000000 11.743549 -56.975188 10.823430 -32.824970 -0.994403 -20.541519 47.894024 11.437504 -4.696836 -16.379654 -8.755495 31.099067 0.653927 4.639851 -6.432815 0.000000 0.000000 0.000000 2.669969 -48.727727 4.356859 6.557350 0.347089 -3.431312 8.251714 -3.746307 -1.065195 -0.086213 -0.020821 -0.136313 0.000000 0.000000 0.000000 11.502233 -0.752834 -0.364003 -13.249245 28.305410 -2.040093 28.930506 67.247324 -39.689980 0.000000 0.000000 0.000000 9.441901 -1.500294 -3.143469 2.528913 2.351953 -2.833371 -0.727935 -8.510468 0.698967 -40.787236 -5.144999 -28.280347 15.299830 -26.248472 12.825561 0.000000 0.000000 0.000000 14.172865 -0.295241 -1.692003 -12.325693 10.549874 -13.988569 6.511916 -2.286027 13.962379 -43.223599 -16.314931 40.230613 -155.573842 59.513460 150.415273 0.000000 0.000000 0.000000 
-2.666479 98.398926 -5.663280 0.000000 0.000000 0.000000 13.409866 -60.428159 12.692135 -43.329952 20.687311 31.877231 40.619326 -14.420307 -4.757684 -4.633346 0.215408 -14.658585 -3.926153 -2.571255 -3.484569 0.000000 0.000000 0.000000 11.949620 -57.160446 11.172712 -32.706296 -1.212171 -20.659113 47.681930 11.100552 -4.529245 -16.076220 -8.965478 30.387740 0.846496 4.633154 -6.123976 0.000000 0.000000 0.000000 2.979351 -49.305910 4.951837 6.802476 0.228108 -3.461475 8.002343 -4.060192 -1.105567 0.076749 -0.028931 -0.035038 0.000000 0.000000 0.000000 11.451756 -0.887415 -0.364472 -12.624219 27.984421 -2.393872 29.995971 66.631692 -40.191049 0.000000 0.000000 0.000000 9.342024 -1.716095 -2.970017 2.568977 2.112467 -3.225226 -1.062352 -8.270042 -0.536948 -41.311388 -4.908076 -29.375377 15.109261 -28.450031 12.923619 0.000000 0.000000 0.000000 14.046801 -0.577817 -1.575035 -11.342138 11.357829 -13.375910 8.112710 -2.163583 13.850102 -43.420940 -16.460110 39.086533 -155.401461 60.007296 150.686117 0.000000 0.000000 0.000000 
-2.599155 98.410362 -6.118843 0.000000 0.000000 0.000000 13.447081 -60.843107 13.379039 -41.820203 19.779932 30.674335 40.454736 -14.096412 -4.263565 -5.170477 1.303183 -14.248879 -3.604903 -2.670990 -3.644363 0.000000 0.000000 0.000000 11.992589 -57.793680 11.745893 -33.283023 -1.750349 -21.048469 47.840223 11.083818 -4.472652 -15.380486 -8.328629 30.445391 0.081590 4.743491 -6.580228 0.000000 0.000000 0.000000 3.519260 -49.979288 5.883078 7.533535 0.351790 -3.337838 7.604500 -4.254804 -1.173148 0.187795 -0.061508 0.046362 0.000000 0.000000 0.000000 11.153716 -0.855621 -0.432993 -12.261203 27.253105 -3.159735 29.599936 65.698825 -39.054161 0.000000 0.000000 0.000000 9.100577 -1.812274 -2.762314 2.485213 1.609390 -3.893532 -0.946330 -7.149669 -1.656092 -43.173154 -3.940897 -30.249590 15.842472 -29.374239 12.886101 0.000000 0.000000 0.000000 13.595211 -0.763421 -1.480800 -9.911274 12.483103 -12.026460 8.634680 -1.416594 13.337208 -43.199816 -15.010807 35.744405 -154.536022 60.983303 150.528162 0.000000 0.000000 0.000000 
-2.651598 98.230042 -6.457153 0.000000 0.000000 0.000000 12.979951 -61.600206 14.029594 -39.556269 18.781582 29.041370 40.407010 -13.834765 -3.658638 -5.808117 2.695446 -14.150890 -3.361913 -2.842868 -3.478465 0.000000 0.000000 0.000000 11.865575 -59.128456 12.588628 -34.504135 -2.390861 -21.658653 48.042454 11.385439 -4.586131 -15.036805 -6.985297 30.675906 -0.497203 4.913022 -7.792516 0.000000 0.000000 0.000000 4.080426 -50.891603 7.100759 8.612636 0.779125 -3.048742 7.095041 -4.217398 -1.301006 0.209456 -0.084597 0.055786 0.000000 0.000000 0.000000 10.662863 -0.612979 -0.610822 -12.183195 26.157968 -4.247893 27.827523 64.543355 -36.320706 0.000000 0.000000 0.000000 8.786255 -1.722956 -2.603102 2.262159 0.737913 -4.849071 -0.869430 -5.743363 -2.378395 -45.271477 -2.620198 -30.418780 17.427704 -28.985175 12.705088 0.000000 0.000000 0.000000 12.902804 -0.777956 -1.495353 -8.145435 13.922227 -10.449960 8.297631 -0.826486 12.545275 -42.255232 -12.278257 30.447672 -152.417761 62.786063 149.220973 0.000000 0.000000 0.000000 
